<svg width="1512" height="982" viewBox="0 0 1512 982" fill="none" xmlns="http://www.w3.org/2000/svg">
<g clip-path="url(#clip0_402_189)">
<rect width="1512" height="982" fill="white"/>
<path fill-rule="evenodd" clip-rule="evenodd" d="M1788.38 959.96C1843.52 647.221 1634.7 348.992 1321.96 293.848C1154.77 264.368 1222.24 692.276 1098.27 789.223C990.34 873.622 681.512 614.715 655.848 760.264C600.703 1073 809.525 1371.23 1122.26 1426.38C1435 1481.52 1733.23 1272.7 1788.38 959.96Z" fill="#D0D0D3" stroke="#263B94" stroke-width="10"/>
<path fill-rule="evenodd" clip-rule="evenodd" d="M-146.72 945.143C-32.8983 1119.88 204.971 1166.68 384.575 1049.68C480.591 987.14 254.145 813.57 271.737 710.415C287.053 620.611 556.657 602.786 503.684 521.465C389.862 346.732 151.993 299.927 -27.6109 416.922C-207.215 533.918 -260.542 770.41 -146.72 945.143Z" fill="#D0D0D2" stroke="#263B94" stroke-width="10"/>
<path fill-rule="evenodd" clip-rule="evenodd" d="M540.961 35.058C529.937 243.301 694.521 421.302 908.571 432.634C1023 438.692 942.353 165.013 1017.36 92.0446C1082.66 28.5207 1310.97 173.011 1316.1 76.0939C1327.13 -132.15 1162.54 -310.151 948.494 -321.482C734.444 -332.814 551.986 -173.185 540.961 35.058Z" fill="#D0D0D2" stroke="#263B94" stroke-width="10"/>
</g>
<defs>
<clipPath id="clip0_402_189">
<rect width="1512" height="982" fill="white"/>
</clipPath>
</defs>
</svg>
