<svg width="30" height="28" viewBox="0 0 30 28" fill="none" xmlns="http://www.w3.org/2000/svg">
<g clip-path="url(#clip0_669_96)">
<path d="M14.9998 11.4545V16.8763H23.0725C22.718 18.62 21.6542 20.0964 20.0588 21.0891L24.9269 24.6146C27.7633 22.171 29.3997 18.5819 29.3997 14.3183C29.3997 13.3256 29.3042 12.3709 29.1269 11.4547L14.9998 11.4545Z" fill="#4285F4"/>
<path d="M6.59333 16.6647L5.49538 17.4491L1.60895 20.2746C4.07712 24.8436 9.13584 28 14.9994 28C19.0493 28 22.4447 26.7527 24.9266 24.6146L20.0585 21.0891C18.7221 21.9291 17.0175 22.4383 14.9994 22.4383C11.0995 22.4383 7.78591 19.9819 6.59946 16.6728L6.59333 16.6647Z" fill="#34A853"/>
<path d="M1.60897 7.72546C0.586302 9.60902 0 11.7345 0 13.9999C0 16.2653 0.586302 18.3908 1.60897 20.2744C1.60897 20.287 6.59997 16.6598 6.59997 16.6598C6.29997 15.8198 6.12265 14.929 6.12265 13.9998C6.12265 13.0706 6.29997 12.1797 6.59997 11.3397L1.60897 7.72546Z" fill="#FBBC05"/>
<path d="M14.9997 5.57454C17.2089 5.57454 19.1725 6.28725 20.7406 7.66181L25.0361 3.65277C22.4315 1.38736 19.0498 0 14.9997 0C9.13615 0 4.07712 3.14363 1.60895 7.72546L6.59979 11.34C7.78608 8.03089 11.0998 5.57454 14.9997 5.57454Z" fill="#EA4335"/>
</g>
<defs>
<clipPath id="clip0_669_96">
<rect width="30" height="28" fill="white"/>
</clipPath>
</defs>
</svg>
