<svg width="23" height="23" viewBox="0 0 23 23" fill="none" xmlns="http://www.w3.org/2000/svg">
<circle cx="11.5" cy="11.5" r="9.5" fill="white"/>
<path d="M15.2779 7.96484L9.67163 13.6115L7.55132 11.4912L6.75171 12.2908L9.26733 14.8064C9.37964 14.9188 9.53237 15.0086 9.66714 15.0086C9.8019 15.0086 9.95015 14.9188 10.0625 14.8109L16.0685 8.77344L15.2779 7.96484Z" fill="#2EF418"/>
<path d="M11.5 2C6.25216 2 2 6.25216 2 11.5C2 16.7478 6.25216 21 11.5 21C16.7478 21 21 16.7478 21 11.5C21 6.25216 16.7478 2 11.5 2ZM11.5 20.2099C6.69976 20.2099 2.79014 16.3048 2.79014 11.5C2.79014 6.69976 6.69519 2.79014 11.5 2.79014C16.3002 2.79014 20.2099 6.69519 20.2099 11.5C20.2099 16.3002 16.3002 20.2099 11.5 20.2099Z" fill="#2EF418"/>
</svg>
