<svg width="26" height="26" viewBox="0 0 26 26" fill="none" xmlns="http://www.w3.org/2000/svg">
<circle cx="13" cy="13" r="13" fill="#263B94"/>
<path d="M17.8633 16.9023C18.0391 17.0977 18.0391 17.3906 17.8438 17.5664L17.2969 18.1133C17.1211 18.3086 16.8281 18.3086 16.6328 18.1133L14.6992 16.1797C14.6016 16.082 14.5625 15.9648 14.5625 15.8477V15.5156C13.8594 16.0625 13 16.375 12.0625 16.375C9.81641 16.375 8 14.5586 8 12.3125C8 10.0859 9.81641 8.25 12.0625 8.25C14.2891 8.25 16.125 10.0859 16.125 12.3125C16.125 13.2695 15.793 14.1289 15.2656 14.8125H15.5781C15.6953 14.8125 15.8125 14.8711 15.9102 14.9492L17.8633 16.9023ZM12.0625 14.8125C13.4297 14.8125 14.5625 13.6992 14.5625 12.3125C14.5625 10.9453 13.4297 9.8125 12.0625 9.8125C10.6758 9.8125 9.5625 10.9453 9.5625 12.3125C9.5625 13.6992 10.6758 14.8125 12.0625 14.8125Z" fill="white"/>
</svg>
