<svg width="25" height="25" viewBox="0 0 25 25" fill="none" xmlns="http://www.w3.org/2000/svg">
<g clip-path="url(#clip0_610_2498)">
<path d="M19.9219 21.4844C19.8438 21.4844 19.6875 21.4844 19.6094 21.4063L15.7813 17.5C15.625 17.3438 15.625 17.1094 15.7813 16.9531C15.9375 16.7969 16.1719 16.7969 16.3281 16.9531L20.1562 20.8594C20.3125 21.0156 20.3125 21.25 20.1562 21.4063C20.0781 21.4063 20 21.4844 19.9219 21.4844ZM21.0156 20.3906C20.9375 20.3906 20.7812 20.3906 20.7031 20.3125L16.875 16.4063C16.7187 16.25 16.7187 16.0156 16.875 15.8594C17.0312 15.7031 17.2656 15.7031 17.4219 15.8594L21.25 19.7656C21.4063 19.9219 21.4063 20.1563 21.25 20.3125C21.1719 20.3125 21.0937 20.3906 21.0156 20.3906Z" fill="#202224"/>
<path d="M19.9219 23.0469C19.4531 23.0469 18.9063 22.8906 18.5156 22.5L13.5156 17.5C13.4375 17.4219 13.4375 17.3437 13.4375 17.1875C13.4375 17.0312 13.5156 16.9531 13.5156 16.875L16.7969 13.5938C16.9531 13.4375 17.1875 13.4375 17.3438 13.5938L22.3438 18.5937C22.7344 18.9844 22.8906 19.4531 22.8906 20C22.8906 20.5469 22.6563 21.0156 22.3438 21.4062L21.25 22.5C20.9375 22.8125 20.3906 23.0469 19.9219 23.0469ZM14.375 17.1875L19.0625 21.875C19.5313 22.3438 20.2344 22.3438 20.7031 21.875L21.7969 20.7812C22.0312 20.5469 22.1094 20.2344 22.1094 19.9219C22.1094 19.6094 21.9531 19.2969 21.7969 19.0625L17.1094 14.375L14.375 17.1875ZM12.7344 14.2969C12.6562 14.2969 12.5 14.2969 12.4219 14.2188L4.6875 6.40625C4.53125 6.32812 4.53125 6.01562 4.6875 5.85938L5.78125 4.76563C5.9375 4.60938 6.17188 4.60938 6.32813 4.76563L14.0625 12.5C14.2188 12.6562 14.2188 12.8906 14.0625 13.0469L12.9688 14.1406C12.8906 14.2188 12.8125 14.2969 12.7344 14.2969ZM5.54688 6.17188L12.7344 13.3594L13.2812 12.8125L6.09375 5.625L5.54688 6.17188Z" fill="#202224"/>
<path d="M7.03125 23.2812C6.95313 23.2812 6.79688 23.2812 6.71875 23.2031L5.625 22.1094C5.46875 21.9531 5.46875 21.7188 5.625 21.5625L7.73438 19.5312L7.26563 17.8125L5.46875 17.2656L3.4375 19.2969C3.28125 19.4531 3.04688 19.4531 2.89063 19.2969L1.79687 18.2031C1.71875 18.125 1.71875 18.0469 1.71875 17.8906C1.71875 17.7344 1.79687 17.6562 1.79687 17.5781L4.6875 14.7656C4.76563 14.6875 4.92188 14.6094 5.07813 14.6875L7.42188 15.3125L10.7813 11.9531C10.9375 11.7969 11.1719 11.7969 11.3281 11.9531L12.7344 13.3594L13.2813 12.8125L11.875 11.4063C11.7188 11.25 11.7188 11.0156 11.875 10.8594L15.3125 7.42188L14.6875 5.07812C14.6875 4.92188 14.6875 4.76562 14.7656 4.6875L17.6563 1.79688C17.8125 1.64063 18.0469 1.64063 18.2031 1.79688L19.2969 2.89062C19.4531 3.04688 19.4531 3.28125 19.2969 3.4375L17.2656 5.46875L17.7344 7.1875L19.5312 7.73437L21.5625 5.70312C21.7188 5.54688 21.9531 5.54688 22.1094 5.70312L23.2031 6.79688C23.2813 6.875 23.2812 6.95312 23.2812 7.10938C23.2812 7.26562 23.2031 7.34375 23.2031 7.42188L20.3125 10.2344C20.2344 10.3125 20.0781 10.3906 19.9219 10.3125L17.5781 9.6875L9.6875 17.5L10.3125 19.8438C10.3125 20 10.3125 20.1562 10.2344 20.2344L7.34375 23.125C7.26563 23.2812 7.1875 23.2812 7.03125 23.2812ZM6.48438 21.7969L7.03125 22.3438L9.53125 19.8438L8.90625 17.5C8.90625 17.3438 8.90625 17.1875 8.98438 17.1094L12.1875 13.9062L11.0938 12.8125L7.89063 16.0156C7.8125 16.0938 7.65625 16.1719 7.5 16.0938L5.15625 15.4688L2.65625 17.9688L3.20312 18.5156L5.07813 16.6406C5.15625 16.5625 5.3125 16.4844 5.46875 16.5625L7.65625 17.1094C7.8125 17.1094 7.89063 17.2656 7.96875 17.4219L8.51563 19.6094C8.51563 19.7656 8.51563 19.9219 8.4375 20L6.48438 21.7969ZM12.7344 11.1719L13.8281 12.2656L17.1094 8.98438C17.1875 8.90625 17.3438 8.82812 17.5 8.90625L19.8438 9.53125L22.3438 7.03125L21.7969 6.48438L19.9219 8.35938C19.8438 8.4375 19.6875 8.51563 19.5312 8.4375L17.3438 7.89062C17.1875 7.89062 17.1094 7.73438 17.0312 7.57812L16.4844 5.46875C16.4844 5.3125 16.4844 5.15625 16.5625 5.07812L18.4375 3.20312L17.9688 2.65625L15.4688 5.15625L16.0938 7.5C16.0938 7.65625 16.0938 7.8125 16.0156 7.89062L12.7344 11.1719ZM4.45312 6.79688C4.14062 6.79688 3.82812 6.71875 3.59375 6.48438L1.95312 4.76562C1.875 4.6875 1.875 4.60938 1.875 4.53125C1.875 4.45313 1.95312 4.29688 1.95312 4.21875L4.14063 2.03125C4.21875 1.95312 4.29688 1.95313 4.45312 1.95313C4.53125 1.95313 4.6875 2.03125 4.76563 2.03125L6.40625 3.67188C6.5625 3.90625 6.71875 4.21875 6.71875 4.53125C6.71875 4.84375 6.5625 5.15625 6.40625 5.39062L5.23438 6.40625C5.07813 6.64062 4.76562 6.79688 4.45312 6.79688ZM2.8125 4.53125L4.21875 5.9375C4.375 6.09375 4.60938 6.09375 4.76563 5.9375L5.85938 4.84375C5.85938 4.6875 5.9375 4.60938 5.9375 4.53125C5.9375 4.45313 5.85938 4.29688 5.85938 4.21875L4.45312 2.89062L2.8125 4.53125Z" fill="#202224"/>
<path d="M13.8281 17.5781C13.75 17.5781 13.5937 17.5781 13.5156 17.5C13.3594 17.3438 13.3594 17.1094 13.5156 16.9531C13.5937 16.875 13.5937 16.7969 13.5937 16.7188C13.5937 16.6406 13.5156 16.4844 13.5156 16.4062C13.3594 16.25 13.125 16.25 12.9688 16.4062C12.8125 16.5625 12.5781 16.5625 12.4219 16.4062C12.3437 16.3281 12.3438 16.25 12.3438 16.0938C12.3438 15.9375 12.3437 15.8594 12.4219 15.7813L15.7031 12.5C15.8594 12.3438 16.0937 12.3438 16.25 12.5C16.3281 12.5781 16.3281 12.6562 16.3281 12.8125C16.3281 12.9687 16.3281 13.0469 16.25 13.125C16.0937 13.2812 16.0937 13.5156 16.25 13.6719C16.4062 13.8281 16.6406 13.8281 16.7969 13.6719C16.9531 13.5156 17.1875 13.5156 17.3438 13.6719C17.5 13.8281 17.5 14.0625 17.3438 14.2188L14.0625 17.5C14.0625 17.5781 13.9063 17.5781 13.8281 17.5781ZM13.75 15.625C13.8281 15.7031 13.9844 15.7812 14.0625 15.8594C14.1406 15.9375 14.2187 16.0938 14.2969 16.1719L16.0156 14.4531C15.9375 14.375 15.7813 14.2969 15.7031 14.2188C15.625 14.1406 15.5469 13.9844 15.4687 13.9062L13.75 15.625Z" fill="#202224"/>
<path d="M12.7344 16.4844C12.6562 16.4844 12.5 16.4844 12.4219 16.4062L11.3281 15.3125C11.1719 15.1563 11.1719 14.9219 11.3281 14.7656L14.6094 11.4844C14.7656 11.3281 15 11.3281 15.1562 11.4844L16.25 12.5781C16.4062 12.7344 16.4062 12.9687 16.25 13.125L12.9688 16.4062C12.8906 16.4844 12.8125 16.4844 12.7344 16.4844ZM12.1875 15L12.7344 15.5469L15.4687 12.8125L14.9219 12.2656L12.1875 15Z" fill="#202224"/>
</g>
<defs>
<clipPath id="clip0_610_2498">
<rect width="25" height="25" fill="white"/>
</clipPath>
</defs>
</svg>
