<svg width="100" height="100" viewBox="0 0 100 100" fill="none" xmlns="http://www.w3.org/2000/svg">
<path d="M66.8062 65.625H62.4906V40.625H96.875V65.625H86.0844" fill="#263B94"/>
<path d="M15.8156 54.6875H0.00311279V17.1875H62.5031V54.6875H34.1656" fill="#4BBFEB"/>
<path d="M16.9969 65.625H0.0437622V54.6875H62.4781V65.625H35.775" fill="#576D7E"/>
<path d="M25.0031 56.25C22.2335 56.2521 19.543 57.1739 17.3541 58.8707C15.1652 60.5675 13.6018 62.9433 12.9094 65.625H37.0937C36.4013 62.9433 34.8379 60.5675 32.649 58.8707C30.4601 57.1739 27.7727 56.2521 25.0031 56.25Z" fill="#34485C"/>
<path d="M25 78.125C30.1777 78.125 34.375 73.9277 34.375 68.75C34.375 63.5723 30.1777 59.375 25 59.375C19.8223 59.375 15.625 63.5723 15.625 68.75C15.625 73.9277 19.8223 78.125 25 78.125Z" fill="#2B4255"/>
<path fill-rule="evenodd" clip-rule="evenodd" d="M0.0437622 59.375V62.5H6.22814C6.64254 62.5 7.03997 62.3353 7.33299 62.0422C7.62602 61.7492 7.79064 61.3519 7.79064 60.9375C7.79064 60.5231 7.62602 60.1254 7.33299 59.8324C7.03997 59.5394 6.64254 59.375 6.22814 59.375H0.0437622Z" fill="#F17F53"/>
<path d="M25 71.875C26.7259 71.875 28.125 70.4759 28.125 68.75C28.125 67.0241 26.7259 65.625 25 65.625C23.2741 65.625 21.875 67.0241 21.875 68.75C21.875 70.4759 23.2741 71.875 25 71.875Z" fill="#E9EDED"/>
<path d="M62.4906 21.875H80.3969L96.8531 40.6872L62.4656 40.625L62.4906 21.875Z" fill="#4BBFEB"/>
<path d="M68.75 43.75H71.9187" stroke="#2B4255" stroke-linecap="round" stroke-linejoin="round"/>
<path d="M7.8125 21.9V50.0002M17.1875 21.897V50.0002M26.5625 21.897V50.0002M35.9375 21.897V50.0002M45.3125 21.897V50.0002M54.6875 21.897V50.0002" stroke="#263B94" stroke-linecap="round" stroke-linejoin="round"/>
<path fill-rule="evenodd" clip-rule="evenodd" d="M96.875 60.9375V57.8125H90.6937C90.2793 57.8125 89.8819 57.9769 89.5889 58.2699C89.2958 58.5629 89.1312 58.9606 89.1312 59.375C89.1312 59.7894 89.2958 60.1867 89.5889 60.4797C89.8819 60.7728 90.2793 60.9375 90.6937 60.9375H96.875Z" fill="#F17F53"/>
<path d="M64.0593 21.8438H62.4968L62.4781 40.5686C62.4781 40.983 62.6427 41.3803 62.9357 41.6734C63.2288 41.9664 63.6262 42.1311 64.0406 42.1311L95.3031 42.1841C95.6027 42.1839 95.896 42.0977 96.1479 41.9354C96.3998 41.7732 96.5998 41.5421 96.7239 41.2694C96.8481 40.9967 96.8912 40.6939 96.8482 40.3973C96.8052 40.1008 96.6778 39.8228 96.4812 39.5966L81.375 22.3466C81.2291 22.1788 81.0491 22.0441 80.847 21.9514C80.645 21.8587 80.4254 21.8101 80.2031 21.8091C73.4156 21.8091 64.0593 21.8438 64.0593 21.8438ZM65.6218 24.9375H79.4968L91.8531 39.053L65.6031 39.0092L65.6218 24.9375Z" fill="#263B94"/>
<path fill-rule="evenodd" clip-rule="evenodd" d="M73.4156 23.4341V42.1841H76.5406V23.4341H73.4156Z" fill="#263B94"/>
<path d="M76.5625 56.25C73.7934 56.2528 71.1037 57.1747 68.9154 58.8715C66.7271 60.5683 65.1641 62.9439 64.4719 65.625H88.6531C87.9608 62.9439 86.3979 60.5683 84.2096 58.8715C82.0213 57.1747 79.3316 56.2528 76.5625 56.25Z" fill="#34485C"/>
<path d="M76.5625 78.125C81.7402 78.125 85.9375 73.9277 85.9375 68.75C85.9375 63.5723 81.7402 59.375 76.5625 59.375C71.3848 59.375 67.1875 63.5723 67.1875 68.75C67.1875 73.9277 71.3848 78.125 76.5625 78.125Z" fill="#2B4255"/>
<path d="M76.5625 71.875C78.2884 71.875 79.6875 70.4759 79.6875 68.75C79.6875 67.0241 78.2884 65.625 76.5625 65.625C74.8366 65.625 73.4375 67.0241 73.4375 68.75C73.4375 70.4759 74.8366 71.875 76.5625 71.875Z" fill="#E9EDED"/>
</svg>
