<svg width="109" height="57" viewBox="0 0 109 57" fill="none" xmlns="http://www.w3.org/2000/svg">
<path d="M108.729 44.785C108.238 40.4345 107.747 36.0839 107.256 31.7334C107.021 29.6664 106.852 27.5797 106.529 25.5127C106.183 23.3472 104.97 21.8314 103.468 20.1582C100.399 16.7328 97.3305 13.3272 94.2616 9.90193C93.533 9.09481 92.8491 8.22861 92.0538 7.46087C90.9936 6.37816 89.5948 6.61441 88.1082 6.65378C85.6453 6.71284 83.1823 6.79157 80.7193 6.89C75.3715 7.10655 70.0232 7.46088 64.6966 7.91365C64.6599 6.16162 64.6454 4.4096 64.6087 2.65757C64.5907 1.71266 63.9277 1.12208 63.1299 0.925219C62.665 0.688991 62.0662 0.629938 61.4891 0.708681C56.0721 1.53548 50.6358 1.71264 45.2005 1.65358C45.0714 0.748038 44.165 0 43.1223 0L39.5726 0C38.5964 0 37.7506 0.629929 37.5252 1.43704C31.2254 1.20081 24.9261 0.866157 18.6468 1.04333C15.0744 1.14176 11.5015 1.37799 7.92852 1.61422C6.50819 1.71265 5.06585 1.77171 3.64535 1.90951C1.448 2.12605 0.75412 3.52373 0.63543 5.29544C0.185613 11.7524 0.0905978 18.2487 0.217613 24.7056C0.341179 31.9499 0.819707 39.1943 1.60893 46.4189C1.69457 47.1276 2.09117 47.7576 2.75537 48.0725C3.08686 48.3678 3.57408 48.5647 4.21764 48.5253L10.2535 48.23C10.2263 49.3718 10.4432 50.5135 10.9487 51.5963C11.9374 53.8011 13.7714 55.4941 16.297 56.3012C18.7118 57.0886 21.3749 56.9114 23.8837 56.5177C29.1675 55.6909 34.8785 53.5846 36.2533 48.6828C40.6693 48.4466 45.0854 48.1906 49.5014 47.9544C53.8731 47.7182 58.1782 47.4622 62.5471 47.856C62.7023 47.8757 62.8577 47.856 63.0131 47.8363C63.4123 47.8757 63.8119 47.8166 64.1674 47.6788C66.2291 48.0528 68.315 47.9544 70.4227 47.9347C72.9742 47.915 75.5027 48.0725 78.0081 48.4465C78.0303 48.4465 78.0524 48.4465 78.0746 48.4465C78.3553 50.1986 79.2353 51.9112 80.6488 53.368C83.8291 56.6752 89.1945 57.4823 93.7912 56.5177C96.4781 55.9665 99.0788 54.8247 100.442 52.6199C101.47 50.9663 102.299 49.0962 102.529 47.1867C104.126 47.1867 105.702 46.9701 107.213 46.5174C107.968 46.3402 108.814 45.6118 108.729 44.785ZM32.2424 47.6001C31.8067 50.8285 27.3419 52.0884 24.3664 52.679C21.2799 53.2892 17.0621 53.8601 15.1888 50.986C13.514 48.4072 14.7703 45.2378 16.9534 43.2102C19.1365 41.1825 22.4479 39.8833 25.6182 40.3951C28.8994 40.9266 31.7725 43.4464 31.8701 46.478C31.8905 46.8914 32.0221 47.2457 32.2649 47.5213C32.2648 47.541 32.2647 47.5804 32.2424 47.6001ZM49.4953 44.2929C44.9682 44.5488 40.4413 44.785 35.9143 45.0409C35.1537 41.3991 32.1053 38.3871 28.1395 37.1272C23.5312 35.6705 18.2668 37.1273 14.7269 39.9423C13.1685 41.1825 11.9192 42.7574 11.1128 44.5094C11.0907 44.5094 11.0463 44.5094 11.0241 44.5094L5.63183 44.7653C4.44117 32.9539 4.0939 21.0637 4.6339 9.21293C4.65919 8.50424 4.70667 7.79555 4.73196 7.08686C4.73291 6.87032 4.89141 6.14193 4.91601 5.59073C5.2267 5.57104 5.55956 5.55137 5.87024 5.53168C6.82449 5.47263 7.75657 5.41357 8.7109 5.33483C11.9954 5.11828 15.302 4.90173 18.6081 4.8033C25.5087 4.62613 32.4068 5.01985 39.3055 5.25608C46.3596 5.49231 53.4145 5.512 60.407 4.62615C60.6156 17.7762 60.8019 30.946 61.0106 44.096C57.1956 43.8598 53.3566 44.0763 49.4953 44.2929ZM98.3416 45.8677C98.6455 47.3835 97.6836 49.1946 96.9456 50.5332C96.2078 51.8325 95.0517 52.3837 93.5191 52.7971C90.5649 53.5845 86.9268 53.5058 84.4946 51.616C82.2835 49.9033 81.3417 47.1276 82.8606 44.785C83.6647 43.5448 84.8239 42.2849 86.1366 41.4384C87.5827 40.5132 89.2252 40.3557 90.9546 40.592C93.7927 40.9857 97.1151 42.2258 98.5024 44.6078C98.301 44.9819 98.2547 45.4347 98.3416 45.8677ZM102.545 43.5055C100.807 40.0998 97.0672 37.954 92.9887 37.1272C90.2844 36.576 87.4893 36.517 84.955 37.6785C82.8653 38.6431 81.1718 40.336 79.8333 42.0093C79.1416 42.8952 78.6273 43.8204 78.3125 44.785C75.9622 44.47 73.6114 44.2732 71.2376 44.2535C69.2409 44.2338 67.199 44.4307 65.248 44.1157C65.0736 33.2885 64.9213 22.4614 64.7469 11.6342C72.9143 10.9452 81.0806 10.5121 89.2679 10.3547C91.4757 12.8154 93.6835 15.2761 95.8912 17.7565C97.0834 19.0755 98.2756 20.4141 99.4679 21.733C100.439 22.8157 101.743 23.9378 102.159 25.2962C102.596 26.7332 102.612 28.3277 102.783 29.8042C102.975 31.4578 103.167 33.1311 103.338 34.7847C103.658 37.6391 103.978 40.4935 104.298 43.348C103.743 43.4661 103.144 43.5055 102.545 43.5055Z" fill="#292A6A"/>
<path d="M98.7429 25.158C97.3534 23.2879 95.9416 21.4177 94.5076 19.587C93.7795 18.6617 93.0735 17.7562 92.3233 16.831C91.6613 16.0041 91.0223 15.0002 90.1601 14.3112C89.2537 13.5828 88.1007 13.4253 86.9249 13.4056C85.6162 13.3662 84.3073 13.3466 82.9762 13.3269C80.2698 13.2678 77.5856 13.2088 74.8792 13.1497C73.7478 13.13 72.7676 14.0356 72.7633 15.0199C72.7468 18.7798 72.7082 22.5398 72.603 26.2998C72.5755 27.5006 73.5935 28.0912 74.6583 28.1109C75.1013 28.2881 75.6335 28.3274 76.1441 28.2683C83.0035 27.3431 90.0145 27.284 96.8891 27.973C98.4857 28.1502 99.5588 26.2801 98.7429 25.158ZM76.8708 24.4296C76.9261 21.9295 76.9593 19.4295 76.9703 16.9294C78.6118 16.9688 80.2312 17.0081 81.8729 17.0278C83.0486 17.0475 84.2022 17.0672 85.3779 17.1065C85.9546 17.1262 86.5537 17.1262 87.1304 17.1459C87.796 17.1459 87.3523 17.1459 87.463 17.205C87.839 17.4609 88.1691 18.0711 88.4338 18.4255C88.7647 18.8389 89.0736 19.2326 89.4046 19.646C90.0444 20.4531 90.6842 21.2799 91.3241 22.087C91.7873 22.6973 92.2505 23.3075 92.7138 23.8981C87.4348 23.6225 82.1537 23.8194 76.8708 24.4296Z" fill="#292A6A"/>
<path d="M55.6942 9.90412C54.2951 8.20871 51.7273 7.49542 49.6917 8.38428C48.5778 8.86712 47.7987 9.84925 47.3708 10.9631C46.8879 12.2141 46.9208 13.5967 47.2171 14.8806C47.5793 16.4334 48.3035 17.9203 49.0936 19.2975C49.8727 20.6637 50.7945 21.9476 51.826 23.1383C51.8919 23.2096 51.9577 23.259 52.029 23.2864C52.1113 23.4016 52.243 23.4839 52.4186 23.4949C53.1538 23.5388 53.6037 22.7158 53.9933 22.211C54.3993 21.6843 54.7889 21.152 55.1455 20.5924C55.8862 19.4566 56.5117 18.2221 56.8793 16.9162C57.5432 14.5514 57.2909 11.8355 55.6942 9.90412ZM56.0783 15.7201C55.8588 17.0095 55.3431 18.2166 54.6901 19.3414C54.339 19.9395 53.9549 20.5156 53.5434 21.0752C53.3459 21.3441 53.1429 21.6129 52.9398 21.8763C52.8685 21.9696 52.6929 22.2604 52.5448 22.3866C50.9152 20.4991 49.5161 18.3044 48.6382 15.9615C47.8865 13.9589 47.5902 11.2484 49.4612 9.73403C50.8658 8.59827 53.0715 8.95491 54.3774 10.0578C55.9795 11.4075 56.4185 13.7284 56.0783 15.7201Z" fill="#292A6A"/>
<path d="M54.0811 12.1208C53.7793 11.199 52.9673 10.4967 52.0291 10.3101C51.9522 10.173 51.8041 10.0797 51.5956 10.0852C50.4269 10.1346 49.5929 11.188 49.3131 12.258C49.0333 13.3443 49.4557 14.4198 50.405 15.0178C51.2993 15.5884 52.4186 15.5006 53.2307 14.8367C54.0043 14.2058 54.3993 13.0865 54.0811 12.1208ZM52.7917 13.8107C52.3912 14.299 51.7602 14.5075 51.1676 14.2497C50.6135 14.0137 50.2349 13.476 50.2623 12.8725C50.2897 12.3238 50.6409 11.5392 51.1841 11.2429C51.2554 11.2813 51.3432 11.3033 51.4474 11.3033C52.0784 11.2813 52.6655 11.627 52.9728 12.1757C53.2691 12.7079 53.1648 13.3498 52.7917 13.8107Z" fill="#292A6A"/>
</svg>
